<svg xmlns="http://www.w3.org/2000/svg" xmlns:xlink="http://www.w3.org/1999/xlink" width="200" zoomAndPan="magnify" viewBox="0 0 150 149.999998" height="200" preserveAspectRatio="xMidYMid meet" version="1.0"><path fill="#4003ca" d="M 75 18.75 C 76.152344 18.75 77.300781 18.785156 78.449219 18.855469 C 79.597656 18.925781 80.742188 19.03125 81.886719 19.171875 C 83.027344 19.3125 84.164062 19.488281 85.296875 19.699219 C 86.425781 19.910156 87.550781 20.15625 88.667969 20.4375 C 89.785156 20.714844 90.890625 21.027344 91.988281 21.375 C 93.085938 21.722656 94.171875 22.105469 95.242188 22.519531 C 96.316406 22.933594 97.378906 23.378906 98.425781 23.859375 C 99.46875 24.339844 100.5 24.847656 101.515625 25.390625 C 102.53125 25.933594 103.527344 26.507812 104.507812 27.109375 C 105.488281 27.714844 106.449219 28.347656 107.390625 29.011719 C 108.332031 29.671875 109.25 30.363281 110.148438 31.082031 C 111.046875 31.800781 111.921875 32.546875 112.773438 33.320312 C 113.628906 34.09375 114.457031 34.894531 115.261719 35.714844 C 116.0625 36.539062 116.839844 37.386719 117.59375 38.257812 C 118.34375 39.128906 119.070312 40.023438 119.765625 40.941406 C 120.460938 41.855469 121.128906 42.792969 121.769531 43.75 C 122.410156 44.707031 123.019531 45.683594 123.597656 46.675781 C 124.179688 47.671875 124.726562 48.679688 125.242188 49.710938 C 125.761719 50.738281 126.246094 51.78125 126.699219 52.839844 C 127.152344 53.894531 127.574219 54.964844 127.960938 56.050781 C 128.347656 57.132812 128.703125 58.226562 129.023438 59.332031 C 129.34375 60.4375 129.632812 61.550781 129.882812 62.675781 C 130.136719 63.796875 130.351562 64.929688 130.535156 66.0625 C 130.71875 67.199219 130.867188 68.339844 130.980469 69.488281 C 131.09375 70.632812 131.167969 71.78125 131.210938 72.929688 C 131.253906 74.078125 131.261719 75.230469 131.234375 76.378906 C 131.203125 77.53125 131.140625 78.679688 131.042969 79.824219 C 130.945312 80.972656 130.808594 82.113281 130.640625 83.253906 C 130.472656 84.390625 130.269531 85.523438 130.03125 86.648438 C 129.792969 87.777344 129.519531 88.894531 129.210938 90.003906 C 128.90625 91.113281 128.566406 92.210938 128.191406 93.296875 C 127.816406 94.386719 127.410156 95.460938 126.96875 96.527344 C 126.527344 97.589844 126.054688 98.636719 125.550781 99.671875 C 125.046875 100.707031 124.507812 101.722656 123.941406 102.726562 C 123.375 103.726562 122.777344 104.710938 122.148438 105.675781 C 121.523438 106.640625 120.867188 107.582031 120.179688 108.507812 C 119.496094 109.433594 118.78125 110.335938 118.039062 111.214844 C 117.300781 112.097656 116.53125 112.953125 115.738281 113.785156 C 114.945312 114.621094 114.128906 115.429688 113.285156 116.210938 C 112.441406 116.996094 111.574219 117.75 110.683594 118.480469 C 109.796875 119.210938 108.882812 119.914062 107.949219 120.589844 C 107.019531 121.261719 106.066406 121.90625 105.09375 122.523438 C 104.121094 123.140625 103.132812 123.722656 102.121094 124.277344 C 101.113281 124.832031 100.089844 125.355469 99.050781 125.847656 C 98.007812 126.339844 96.957031 126.800781 95.886719 127.226562 C 94.816406 127.65625 93.738281 128.050781 92.644531 128.410156 C 91.550781 128.773438 90.449219 129.097656 89.335938 129.390625 C 88.222656 129.6875 87.101562 129.945312 85.972656 130.167969 C 84.84375 130.394531 83.710938 130.582031 82.570312 130.738281 C 81.429688 130.894531 80.285156 131.011719 79.136719 131.097656 C 77.992188 131.183594 76.839844 131.230469 75.691406 131.246094 C 74.539062 131.261719 73.390625 131.238281 72.238281 131.183594 C 71.089844 131.125 69.945312 131.035156 68.800781 130.90625 C 67.65625 130.78125 66.515625 130.617188 65.382812 130.421875 C 64.25 130.226562 63.121094 129.992188 62.003906 129.726562 C 60.882812 129.460938 59.773438 129.160156 58.671875 128.828125 C 57.570312 128.492188 56.480469 128.125 55.402344 127.726562 C 54.324219 127.324219 53.257812 126.890625 52.207031 126.425781 C 51.152344 125.957031 50.117188 125.460938 49.09375 124.929688 C 48.074219 124.398438 47.070312 123.839844 46.082031 123.246094 C 45.09375 122.65625 44.125 122.035156 43.175781 121.382812 C 42.230469 120.730469 41.300781 120.050781 40.394531 119.34375 C 39.484375 118.636719 38.601562 117.902344 37.738281 117.140625 C 36.878906 116.375 36.039062 115.589844 35.226562 114.773438 C 34.410156 113.960938 33.625 113.121094 32.859375 112.261719 C 32.097656 111.398438 31.363281 110.515625 30.65625 109.605469 C 29.949219 108.699219 29.269531 107.769531 28.617188 106.824219 C 27.964844 105.875 27.34375 104.90625 26.753906 103.917969 C 26.160156 102.929688 25.601562 101.925781 25.070312 100.90625 C 24.539062 99.882812 24.042969 98.847656 23.574219 97.792969 C 23.109375 96.742188 22.675781 95.675781 22.273438 94.597656 C 21.875 93.519531 21.507812 92.429688 21.171875 91.328125 C 20.839844 90.226562 20.539062 89.117188 20.273438 87.996094 C 20.007812 86.878906 19.773438 85.75 19.578125 84.617188 C 19.382812 83.484375 19.21875 82.34375 19.09375 81.199219 C 18.964844 80.054688 18.875 78.910156 18.816406 77.761719 C 18.761719 76.609375 18.738281 75.460938 18.753906 74.308594 C 18.769531 73.160156 18.816406 72.007812 18.902344 70.863281 C 18.988281 69.714844 19.105469 68.570312 19.261719 67.429688 C 19.417969 66.289062 19.605469 65.15625 19.832031 64.027344 C 20.054688 62.898438 20.3125 61.777344 20.609375 60.664062 C 20.902344 59.550781 21.226562 58.449219 21.589844 57.355469 C 21.949219 56.261719 22.34375 55.183594 22.773438 54.113281 C 23.199219 53.042969 23.660156 51.992188 24.152344 50.949219 C 24.644531 49.910156 25.167969 48.886719 25.722656 47.878906 C 26.277344 46.867188 26.859375 45.878906 27.476562 44.90625 C 28.09375 43.933594 28.738281 42.980469 29.410156 42.050781 C 30.085938 41.117188 30.789062 40.203125 31.519531 39.316406 C 32.25 38.425781 33.003906 37.558594 33.789062 36.714844 C 34.570312 35.871094 35.378906 35.054688 36.214844 34.261719 C 37.046875 33.46875 37.902344 32.699219 38.785156 31.960938 C 39.664062 31.21875 40.566406 30.503906 41.492188 29.820312 C 42.417969 29.132812 43.359375 28.476562 44.324219 27.851562 C 45.289062 27.222656 46.273438 26.625 47.273438 26.058594 C 48.277344 25.492188 49.292969 24.953125 50.328125 24.449219 C 51.363281 23.945312 52.410156 23.472656 53.472656 23.03125 L 64.238281 49.015625 C 63.707031 49.234375 63.179688 49.472656 62.664062 49.726562 C 62.148438 49.976562 61.636719 50.246094 61.136719 50.527344 C 60.636719 50.8125 60.144531 51.109375 59.664062 51.425781 C 59.179688 51.738281 58.707031 52.066406 58.246094 52.410156 C 57.785156 52.753906 57.332031 53.109375 56.890625 53.480469 C 56.453125 53.851562 56.023438 54.234375 55.605469 54.628906 C 55.191406 55.027344 54.785156 55.4375 54.394531 55.859375 C 54.003906 56.28125 53.625 56.710938 53.257812 57.15625 C 52.894531 57.601562 52.542969 58.058594 52.207031 58.523438 C 51.867188 58.992188 51.546875 59.46875 51.238281 59.953125 C 50.929688 60.4375 50.636719 60.933594 50.359375 61.4375 C 50.082031 61.941406 49.820312 62.453125 49.574219 62.976562 C 49.328125 63.496094 49.097656 64.023438 48.886719 64.558594 C 48.671875 65.089844 48.476562 65.632812 48.292969 66.175781 C 48.113281 66.722656 47.949219 67.277344 47.804688 67.832031 C 47.65625 68.386719 47.527344 68.949219 47.414062 69.511719 C 47.304688 70.078125 47.207031 70.644531 47.132812 71.214844 C 47.054688 71.785156 46.992188 72.355469 46.953125 72.929688 C 46.910156 73.503906 46.882812 74.078125 46.878906 74.65625 C 46.871094 75.230469 46.878906 75.804688 46.910156 76.378906 C 46.9375 76.953125 46.984375 77.527344 47.046875 78.101562 C 47.109375 78.671875 47.191406 79.242188 47.289062 79.808594 C 47.386719 80.375 47.503906 80.9375 47.636719 81.5 C 47.769531 82.058594 47.917969 82.613281 48.085938 83.164062 C 48.253906 83.714844 48.4375 84.261719 48.636719 84.800781 C 48.835938 85.339844 49.054688 85.871094 49.289062 86.398438 C 49.519531 86.921875 49.769531 87.441406 50.035156 87.953125 C 50.300781 88.464844 50.582031 88.964844 50.875 89.460938 C 51.171875 89.953125 51.484375 90.4375 51.808594 90.910156 C 52.132812 91.386719 52.472656 91.851562 52.828125 92.304688 C 53.183594 92.757812 53.550781 93.199219 53.929688 93.628906 C 54.3125 94.0625 54.707031 94.480469 55.113281 94.886719 C 55.519531 95.292969 55.9375 95.6875 56.371094 96.070312 C 56.800781 96.449219 57.242188 96.816406 57.695312 97.171875 C 58.148438 97.527344 58.613281 97.867188 59.089844 98.191406 C 59.5625 98.515625 60.046875 98.828125 60.539062 99.125 C 61.035156 99.417969 61.535156 99.699219 62.046875 99.964844 C 62.558594 100.230469 63.078125 100.480469 63.601562 100.710938 C 64.128906 100.945312 64.660156 101.164062 65.199219 101.363281 C 65.738281 101.5625 66.285156 101.746094 66.835938 101.914062 C 67.386719 102.082031 67.941406 102.230469 68.5 102.363281 C 69.0625 102.496094 69.625 102.613281 70.191406 102.710938 C 70.757812 102.808594 71.328125 102.890625 71.898438 102.953125 C 72.472656 103.015625 73.046875 103.0625 73.621094 103.089844 C 74.195312 103.121094 74.769531 103.128906 75.34375 103.121094 C 75.921875 103.117188 76.496094 103.089844 77.070312 103.046875 C 77.644531 103.007812 78.214844 102.945312 78.785156 102.867188 C 79.355469 102.792969 79.921875 102.695312 80.488281 102.585938 C 81.050781 102.472656 81.613281 102.34375 82.167969 102.195312 C 82.722656 102.050781 83.277344 101.886719 83.824219 101.707031 C 84.367188 101.523438 84.910156 101.328125 85.441406 101.113281 C 85.976562 100.902344 86.503906 100.671875 87.023438 100.425781 C 87.546875 100.179688 88.058594 99.917969 88.5625 99.640625 C 89.066406 99.363281 89.5625 99.070312 90.046875 98.761719 C 90.53125 98.453125 91.007812 98.132812 91.476562 97.792969 C 91.941406 97.457031 92.398438 97.105469 92.84375 96.742188 C 93.289062 96.375 93.71875 95.996094 94.140625 95.605469 C 94.5625 95.214844 94.972656 94.808594 95.371094 94.394531 C 95.765625 93.976562 96.148438 93.546875 96.519531 93.109375 C 96.890625 92.667969 97.246094 92.214844 97.589844 91.753906 C 97.933594 91.292969 98.261719 90.820312 98.574219 90.335938 C 98.890625 89.855469 99.1875 89.363281 99.472656 88.863281 C 99.753906 88.363281 100.023438 87.851562 100.273438 87.335938 C 100.527344 86.820312 100.765625 86.292969 100.984375 85.761719 C 101.203125 85.230469 101.40625 84.695312 101.59375 84.148438 C 101.78125 83.605469 101.953125 83.054688 102.105469 82.5 C 102.257812 81.945312 102.394531 81.386719 102.515625 80.824219 C 102.632812 80.261719 102.734375 79.695312 102.820312 79.125 C 102.90625 78.558594 102.972656 77.988281 103.019531 77.414062 C 103.070312 76.839844 103.101562 76.265625 103.117188 75.691406 C 103.128906 75.113281 103.128906 74.539062 103.105469 73.964844 C 103.085938 73.390625 103.046875 72.816406 102.988281 72.242188 C 102.933594 71.671875 102.859375 71.101562 102.769531 70.53125 C 102.675781 69.964844 102.566406 69.398438 102.441406 68.835938 C 102.316406 68.277344 102.171875 67.71875 102.011719 67.167969 C 101.851562 66.613281 101.675781 66.066406 101.480469 65.523438 C 101.285156 64.984375 101.078125 64.449219 100.851562 63.917969 C 100.625 63.390625 100.378906 62.867188 100.121094 62.355469 C 99.863281 61.839844 99.589844 61.335938 99.300781 60.839844 C 99.007812 60.339844 98.703125 59.851562 98.386719 59.375 C 98.066406 58.894531 97.730469 58.429688 97.382812 57.96875 C 97.035156 57.511719 96.671875 57.066406 96.296875 56.628906 C 95.921875 56.195312 95.53125 55.769531 95.128906 55.359375 C 94.726562 54.945312 94.3125 54.546875 93.886719 54.160156 C 93.460938 53.773438 93.023438 53.402344 92.574219 53.042969 C 92.125 52.683594 91.664062 52.335938 91.195312 52.003906 C 90.722656 51.675781 90.242188 51.359375 89.753906 51.054688 C 89.265625 50.753906 88.765625 50.46875 88.257812 50.195312 C 87.75 49.925781 87.234375 49.667969 86.710938 49.429688 C 86.1875 49.191406 85.660156 48.964844 85.121094 48.757812 C 84.585938 48.550781 84.042969 48.363281 83.492188 48.1875 C 82.945312 48.015625 82.390625 47.859375 81.832031 47.71875 C 81.277344 47.578125 80.714844 47.457031 80.148438 47.351562 C 79.582031 47.246094 79.015625 47.15625 78.441406 47.085938 C 77.871094 47.015625 77.300781 46.964844 76.726562 46.929688 C 76.148438 46.894531 75.574219 46.875 75 46.875 Z M 75 18.75 " fill-opacity="1" fill-rule="nonzero"/><path fill="#000000" d="M 53.472656 23.03125 C 54.257812 22.707031 55.050781 22.398438 55.851562 22.109375 L 65.425781 48.554688 C 65.027344 48.699219 64.628906 48.851562 64.238281 49.015625 Z M 53.472656 23.03125 " fill-opacity="1" fill-rule="nonzero"/><path fill="#33ffd9" d="M 55.851562 22.109375 C 58.519531 21.144531 61.242188 20.382812 64.027344 19.832031 L 69.511719 47.414062 C 68.121094 47.691406 66.757812 48.070312 65.425781 48.554688 Z M 55.851562 22.109375 " fill-opacity="1" fill-rule="nonzero"/><path fill="#000000" d="M 64.027344 19.832031 C 64.859375 19.664062 65.695312 19.519531 66.535156 19.390625 L 70.769531 47.195312 C 70.347656 47.257812 69.929688 47.332031 69.511719 47.414062 Z M 64.027344 19.832031 " fill-opacity="1" fill-rule="nonzero"/><path fill="#ff0076" d="M 66.535156 19.390625 C 68.496094 19.09375 70.46875 18.898438 72.453125 18.808594 L 73.726562 46.902344 C 72.734375 46.949219 71.75 47.046875 70.769531 47.195312 Z M 66.535156 19.390625 " fill-opacity="1" fill-rule="nonzero"/><path fill="#000000" d="M 72.453125 18.808594 C 73.300781 18.769531 74.148438 18.75 74.996094 18.75 L 74.996094 46.875 C 74.574219 46.875 74.148438 46.882812 73.726562 46.902344 Z M 72.453125 18.808594 " fill-opacity="1" fill-rule="nonzero"/></svg>